<svg width="32" height="32" viewBox="0 0 32 32" xmlns="http://www.w3.org/2000/svg">
  <path
    fill="#000000"
    d="M7 8.5a2.5 2.5 0 1 1 5 0A2.5 2.5 0 0 1 7 8.5Zm6.5-1h5.25A4.25 4.25 0 0 1 23 11.75v2.75h2.5a2.5 2.5 0 1 1 0 5H23v2.75A4.25 4.25 0 0 1 18.75 26H13.5a2.5 2.5 0 1 1 0-2h5.25A2.25 2.25 0 0 0 21 21.75V19.5h-5a2.5 2.5 0 1 1 0-2h5v-5.75A2.25 2.25 0 0 0 18.75 9.5H13.5a2.5 2.5 0 1 1 0-2Zm-4 8a2.5 2.5 0 1 1 0 5 2.5 2.5 0 0 1 0-5Zm16 0a2.5 2.5 0 1 1 0 5 2.5 2.5 0 0 1 0-5Zm-16 8a2.5 2.5 0 1 1 0 5 2.5 2.5 0 0 1 0-5Z"
  />
</svg>
